{"title":"The Wounds (1998) DVDRip AC3 StoneBoyTony","uid":7991535,"size":1074472178,"categoryP":"video","categoryS":"movies","magnet":"?xt=urn:btih:629265bc6e1a95aac4c8d1a4284e806afc2e4f0d&amp;dn=The+Wounds+%281998%29+DVDRip+AC3+StoneBoyTony&amp;tr=udp%3A%2F%2Ftracker.openbittorrent.com%3A80&amp;tr=udp%3A%2F%2Fopen.demonii.com%3A1337&amp;tr=udp%3A%2F%2Ftracker.coppersurfer.tk%3A6969&amp;tr=udp%3A%2F%2Fexodus.desync.com%3A6969","seeders":2,"leechers":0,"uploader":"StoneBoyTony","files":-1,"time":1357436430,"description":"The Wounds (1998) DVDRip AC3 StoneBoyTony\n\nPlot:\n\n This film follows two Belgrade youths on their rise to gangster legends  \n in a decaying society.\n\n Genre: Comedy | Crime | Drama\n \n Director: Srdjan Dragojevic\n  \n Writer: Srdjan Dragojevic\n\n Stars:Dusan Pekic, Milan Maric and Dragan Bjelogrlic\n \n General\n\n Unique ID : 0\n Complete name : The Wounds (1998) DVDRip AC3 StoneBoyTony.mkv\n Format : Matroska\n Format version : Version 2\n File size : 1.00 GiB\n Duration : 1h 38mn\n Overall bit rate : 1 448 Kbps\n Movie name : The Wounds (1998) DVDRip AC3 StoneBoyTony\n Encoded date : UTC 2012-03-06 17:09:31\n Writing application : mkvmerge v5.3.0 ('I could have danced') built on     \n Feb  9   2012 10:38:07\n Writing library : libebml v1.2.3 + libmatroska v1.3.0\n\n Video\n\n ID : 1\n Format : AVC\n Format/Info : Advanced Video Codec\n Format profile : &lt;a class=&quot;__cf_email__&quot; href=&quot;/cdn-cgi/l/email-protection&quot; data-cfemail=&quot;733b1a141b333f465d43&quot;&gt;[email&amp;#160;protected]&lt;/a&gt;&lt;script cf-hash='f9e31' type=&quot;text/javascript&quot;&gt;\n/* &lt;![CDATA[ */!function(){try{var t=&quot;currentScript&quot;in document?document.currentScript:function(){for(var t=document.getElementsByTagName(&quot;script&quot;),e=t.length;e--;)if(t[e].getAttribute(&quot;cf-hash&quot;))return t[e]}();if(t&amp;&amp;t.previousSibling){var e,r,n,i,c=t.previousSibling,a=c.getAttribute(&quot;data-cfemail&quot;);if(a){for(e=&quot;&quot;,r=parseInt(a.substr(0,2),16),n=2;a.length-n;n+=2)i=parseInt(a.substr(n,2),16)^r,e+=String.fromCharCode(i);e=document.createTextNode(e),c.parentNode.replaceChild(e,c)}}}catch(u){}}();/* ]]&gt; */&lt;/script&gt;\n Format settings, CABAC : Yes\n Format settings, ReFrames : 7 frames\n Muxing mode : Header stripping\n Codec ID : V_MPEG4/ISO/AVC\n Duration : 1h 38mn\n Bit rate : 1 035 Kbps\n Width : 888 pixels\n Height : 490 pixels\n Display aspect ratio : 16:9\n Frame rate : 25.000 fps\n Color space : YUV\n Chroma subsampling : 4:2:0\n Bit depth : 8 bits\n Scan type : Progressive\n Bits/(Pixel*Frame) : 0.095\n Stream size : 733 MiB (71%)\n Title : Encoded by StoneBoyTony\n Writing library : x264 core 120 r2164 da19765\n Language : Serbian\n Default : Yes\n Forced : Yes\n\n Audio\n\n ID : 2\n Format : AC-3\n Format/Info : Audio Coding 3\n Mode extension : CM (complete main)\n Muxing mode : Header stripping\n Codec ID : A_AC3\n Duration : 1h 38mn\n Bit rate mode : Constant\n Bit rate : 384 Kbps\n Channel(s) : 4 channels\n Channel positions : Front: L C R, Side: C\n Sampling rate : 48.0 KHz\n Bit depth : 16 bits\n Compression mode : Lossy\n Delay relative to video : 150ms\n Stream size : 272 MiB (27%)\n Title : Encoded by StoneBoyTony\n Language : Serbian\n Default : Yes\n Forced : Yes\n\n Subtitles included in video: English, Macedonian, Greek, Polish  \n\n Screensots\n &lt;a href=&quot; http://img829.imageshack.us/img829/1313/thewounds1998dvdripac3s.png&quot; rel=&quot;nofollow&quot; target=&quot;_NEW&quot;&gt; http://img829.imageshack.us/img829/1313/thewounds1998dvdripac3s.png&lt;/a&gt;\n &lt;a href=&quot; http://img545.imageshack.us/img545/1313/thewounds1998dvdripac3s.png&quot; rel=&quot;nofollow&quot; target=&quot;_NEW&quot;&gt; http://img545.imageshack.us/img545/1313/thewounds1998dvdripac3s.png&lt;/a&gt;\n &lt;a href=&quot; http://img513.imageshack.us/img513/1313/thewounds1998dvdripac3s.png&quot; rel=&quot;nofollow&quot; target=&quot;_NEW&quot;&gt; http://img513.imageshack.us/img513/1313/thewounds1998dvdripac3s.png&lt;/a&gt;\n &lt;a href=&quot; http://img848.imageshack.us/img848/1313/thewounds1998dvdripac3s.png&quot; rel=&quot;nofollow&quot; target=&quot;_NEW&quot;&gt; http://img848.imageshack.us/img848/1313/thewounds1998dvdripac3s.png&lt;/a&gt;\n &lt;a href=&quot; http://img515.imageshack.us/img515/1313/thewounds1998dvdripac3s.png&quot; rel=&quot;nofollow&quot; target=&quot;_NEW&quot;&gt; http://img515.imageshack.us/img515/1313/thewounds1998dvdripac3s.png&lt;/a&gt;\n &lt;a href=&quot; http://img259.imageshack.us/img259/1313/thewounds1998dvdripac3s.png&quot; rel=&quot;nofollow&quot; target=&quot;_NEW&quot;&gt; http://img259.imageshack.us/img259/1313/thewounds1998dvdripac3s.png&lt;/a&gt;\n &lt;a href=&quot; http://img641.imageshack.us/img641/1313/thewounds1998dvdripac3s.png&quot; rel=&quot;nofollow&quot; target=&quot;_NEW&quot;&gt; http://img641.imageshack.us/img641/1313/thewounds1998dvdripac3s.png&lt;/a&gt;\n &lt;a href=&quot; http://img803.imageshack.us/img803/1313/thewounds1998dvdripac3s.png&quot; rel=&quot;nofollow&quot; target=&quot;_NEW&quot;&gt; http://img803.imageshack.us/img803/1313/thewounds1998dvdripac3s.png&lt;/a&gt;\n &lt;a href=&quot; http://img403.imageshack.us/img403/1313/thewounds1998dvdripac3s.png&quot; rel=&quot;nofollow&quot; target=&quot;_NEW&quot;&gt; http://img403.imageshack.us/img403/1313/thewounds1998dvdripac3s.png&lt;/a&gt;\n &lt;a href=&quot; http://img32.imageshack.us/img32/1313/thewounds1998dvdripac3s.png&quot; rel=&quot;nofollow&quot; target=&quot;_NEW&quot;&gt; http://img32.imageshack.us/img32/1313/thewounds1998dvdripac3s.png&lt;/a&gt;\n &lt;a href=&quot; http://img833.imageshack.us/img833/1313/thewounds1998dvdripac3s.png&quot; rel=&quot;nofollow&quot; target=&quot;_NEW&quot;&gt; http://img833.imageshack.us/img833/1313/thewounds1998dvdripac3s.png&lt;/a&gt;\n &lt;a href=&quot; http://img7.imageshack.us/img7/1313/thewounds1998dvdripac3s.png&quot; rel=&quot;nofollow&quot; target=&quot;_NEW&quot;&gt; http://img7.imageshack.us/img7/1313/thewounds1998dvdripac3s.png&lt;/a&gt;\n\n Use VLC Media Player for best experience \n\n I did my best the rest is yours. Enjoy and don't forget to SeeD\t","torrent":{"xt":"urn:btih:629265bc6e1a95aac4c8d1a4284e806afc2e4f0d","amp;dn":"The+Wounds+%281998%29+DVDRip+AC3+StoneBoyTony","amp;tr":["udp%3A%2F%2Ftracker.openbittorrent.com%3A80","udp%3A%2F%2Fopen.demonii.com%3A1337","udp%3A%2F%2Ftracker.coppersurfer.tk%3A6969","udp%3A%2F%2Fexodus.desync.com%3A6969"],"infoHash":"629265bc6e1a95aac4c8d1a4284e806afc2e4f0d","infoHashBuffer":{"type":"Buffer","data":[98,146,101,188,110,26,149,170,196,200,209,164,40,78,128,106,252,46,79,13]},"announce":[],"urlList":[]}}